<svg width="22" height="22" viewBox="0 0 22 22" fill="none" xmlns="http://www.w3.org/2000/svg">
<path d="M20.5333 9.16668V4.03335C20.5333 3.22338 19.8766 2.56668 19.0667 2.56668H2.93334C2.12337 2.56668 1.46667 3.22338 1.46667 4.03335V9.16668C1.46667 9.97665 2.12337 10.6333 2.93334 10.6333H3.30001V5.86668H18.7V10.6333H19.0667C19.8766 10.6333 20.5333 9.97665 20.5333 9.16668Z" fill="#F28727"/>
<path d="M17.2334 17.9667C16.2206 17.9667 15.4 18.7873 15.4 19.8H17.2334V17.9667Z" fill="#F28727"/>
<path d="M6.60006 19.8C6.60006 18.7873 5.77946 17.9667 4.76672 17.9667V19.8H6.60006Z" fill="#F28727"/>
<path d="M4.76672 7.33334V16.8667C6.38666 16.8667 7.70006 18.1801 7.70006 19.8H14.3001C14.3001 18.1801 15.6135 16.8667 17.2334 16.8667V7.33334H4.76672ZM11.7334 11.7333C11.7334 13.1483 10.7467 14.3 9.53339 14.3C8.53862 14.3 7.69712 13.5256 7.42579 12.4667H6.23339V11H7.42579C7.69712 9.94108 8.53862 9.16668 9.53339 9.16668V10.6333C9.14289 10.6333 8.80006 11.1474 8.80006 11.7333C8.80006 12.3193 9.14289 12.8333 9.53339 12.8333C9.92389 12.8333 10.2667 12.3193 10.2667 11.7333C10.2667 10.3184 11.2534 9.16668 12.4667 9.16668C13.4615 9.16668 14.303 9.94108 14.574 11H15.7667V12.4667H14.574C14.303 13.5256 13.4615 14.3 12.4667 14.3V12.8333C12.8572 12.8333 13.2001 12.3193 13.2001 11.7333C13.2001 11.1474 12.8572 10.6333 12.4667 10.6333C12.0762 10.6333 11.7334 11.1474 11.7334 11.7333Z" fill="#F28727"/>
</svg>
