<svg width="28" height="28" viewBox="0 0 28 28" fill="none" xmlns="http://www.w3.org/2000/svg">
<path d="M22.8666 9.33331C24.9285 9.33331 26.6 7.66184 26.6 5.59997C26.6 3.53811 24.9285 1.86664 22.8666 1.86664C20.8048 1.86664 19.1333 3.53811 19.1333 5.59997C19.1333 7.66184 20.8048 9.33331 22.8666 9.33331Z" fill="#27AE60"/>
<path d="M22.8667 11.2C19.7741 11.2 17.2667 8.6926 17.2667 5.6C17.2667 4.76606 17.4539 3.97786 17.781 3.26666H4.66672C3.89346 3.26666 3.26672 3.8934 3.26672 4.66666V23.8C3.26672 24.5733 3.89346 25.2 4.66672 25.2H23.8001C24.5733 25.2 25.2001 24.5733 25.2001 23.8V10.6857C24.4893 11.0129 23.7007 11.2 22.8667 11.2ZM7.46672 10.7333H17.7334V12.6H7.46672V10.7333ZM21.0001 19.1333H7.46672V17.2667H21.0001V19.1333Z" fill="#F28727"/>
</svg>
