<svg width="24" height="23" viewBox="0 0 24 23" fill="none" xmlns="http://www.w3.org/2000/svg">
<path d="M9.43275 6.00001C9.28275 5.62921 9.19995 5.22481 9.19995 4.80001C9.19995 3.03281 10.6328 1.60001 12.4 1.60001C14.1672 1.60001 15.6 3.03281 15.6 4.80001C15.6 5.22441 15.5172 5.62961 15.3672 6.00001H9.43275Z" fill="#FCFCFC"/>
<path d="M23.6 9.60001C23.6 7.83281 22.1672 6.40001 20.4 6.40001C20 6.40001 19.6 6.40001 19.6 6.40001V8.00001H20.4C21.2836 8.00001 22 8.71641 22 9.60001C22 10.4592 21.3204 11.1556 20.4704 11.1928C19.376 9.06121 17.1608 7.60001 14.6 7.60001C14.6 7.60001 8.40002 7.61001 8.40002 7.60001C8.40002 6.28121 7.33522 5.20001 6.00002 5.20001C5.78282 5.20001 5.60002 5.38241 5.60002 5.60001V8.55081C4.30162 9.33441 3.29722 10.5492 2.78362 12H1.60002C0.937624 12 0.400024 12.5372 0.400024 13.2V15.2C0.400024 15.8628 0.937624 16.4 1.60002 16.4H2.78362C3.34922 17.9972 4.50842 19.31 6.00002 20.074V21.6C6.00002 22.0416 6.35842 22.4 6.80002 22.4H8.80002C9.24162 22.4 9.60002 22.0416 9.60002 21.6V20.8H14V21.6C14 22.0416 14.3584 22.4 14.8 22.4H16.8C17.2416 22.4 17.6 22.0416 17.6 21.6V20.074C19.7352 18.9812 21.2 16.764 21.2 14.2C21.2 13.6964 21.1384 13.2084 21.032 12.7372C22.4964 12.4436 23.6 11.1508 23.6 9.60001ZM7.40002 12.8C6.84762 12.8 6.40002 12.3524 6.40002 11.8C6.40002 11.2476 6.84762 10.8 7.40002 10.8C7.95242 10.8 8.40002 11.2476 8.40002 11.8C8.40002 12.3524 7.95242 12.8 7.40002 12.8Z" fill="#FCFCFC"/>
</svg>
